<svg width="25" height="24" viewBox="0 0 25 24" fill="none" xmlns="http://www.w3.org/2000/svg">
<path d="M3.33328 13H4.33328V20C4.33328 21.103 5.23028 22 6.33328 22H18.3333C19.4363 22 20.3333 21.103 20.3333 20V13H21.3333C21.531 12.9999 21.7243 12.9412 21.8887 12.8314C22.0532 12.7215 22.1813 12.5653 22.257 12.3826C22.3326 12.1999 22.3524 11.9989 22.3139 11.8049C22.2753 11.611 22.1801 11.4328 22.0403 11.293L13.0403 2.29296C12.9475 2.20001 12.8373 2.12627 12.716 2.07596C12.5947 2.02565 12.4646 1.99976 12.3333 1.99976C12.202 1.99976 12.0719 2.02565 11.9506 2.07596C11.8293 2.12627 11.7191 2.20001 11.6263 2.29296L2.62628 11.293C2.48647 11.4328 2.39127 11.611 2.3527 11.8049C2.31413 11.9989 2.33394 12.1999 2.40961 12.3826C2.48528 12.5653 2.61341 12.7215 2.77782 12.8314C2.94223 12.9412 3.13553 12.9999 3.33328 13ZM10.3333 20V15H14.3333V20H10.3333ZM12.3333 4.41396L18.3333 10.414V15L18.3343 20H16.3333V15C16.3333 13.897 15.4363 13 14.3333 13H10.3333C9.23028 13 8.33328 13.897 8.33328 15V20H6.33328V10.414L12.3333 4.41396Z" fill="#222222"/>
<mask id="mask0_636_42442" style="mask-type:alpha" maskUnits="userSpaceOnUse" x="2" y="1" width="21" height="21">
<path d="M3.33328 13H4.33328V20C4.33328 21.103 5.23028 22 6.33328 22H18.3333C19.4363 22 20.3333 21.103 20.3333 20V13H21.3333C21.531 12.9999 21.7243 12.9412 21.8887 12.8314C22.0532 12.7215 22.1813 12.5653 22.257 12.3826C22.3326 12.1999 22.3524 11.9989 22.3139 11.8049C22.2753 11.611 22.1801 11.4328 22.0403 11.293L13.0403 2.29296C12.9475 2.20001 12.8373 2.12627 12.716 2.07596C12.5947 2.02565 12.4646 1.99976 12.3333 1.99976C12.202 1.99976 12.0719 2.02565 11.9506 2.07596C11.8293 2.12627 11.7191 2.20001 11.6263 2.29296L2.62628 11.293C2.48647 11.4328 2.39127 11.611 2.3527 11.8049C2.31413 11.9989 2.33394 12.1999 2.40961 12.3826C2.48528 12.5653 2.61341 12.7215 2.77782 12.8314C2.94223 12.9412 3.13553 12.9999 3.33328 13ZM10.3333 20V15H14.3333V20H10.3333ZM12.3333 4.41396L18.3333 10.414V15L18.3343 20H16.3333V15C16.3333 13.897 15.4363 13 14.3333 13H10.3333C9.23028 13 8.33328 13.897 8.33328 15V20H6.33328V10.414L12.3333 4.41396Z" fill="#333333"/>
</mask>
<g mask="url(#mask0_636_42442)">
<rect x="0.333252" width="24" height="24" fill="#222222"/>
</g>
</svg>
