<svg width="25" height="24" viewBox="0 0 25 24" fill="none" xmlns="http://www.w3.org/2000/svg">
<path fill-rule="evenodd" clip-rule="evenodd" d="M14.6665 7C14.6665 5.897 13.7695 5 12.6665 5C11.5635 5 10.6665 5.897 10.6665 7C10.6665 8.103 11.5635 9 12.6665 9C13.7695 9 14.6665 8.103 14.6665 7ZM16.6665 7C16.6665 9.206 14.8725 11 12.6665 11C10.4605 11 8.6665 9.206 8.6665 7C8.6665 4.794 10.4605 3 12.6665 3C14.8725 3 16.6665 4.794 16.6665 7ZM5.6665 20C5.6665 16.14 8.8075 13 12.6665 13C16.5255 13 19.6665 16.14 19.6665 20C19.6665 20.552 19.2195 21 18.6665 21C18.1135 21 17.6665 20.552 17.6665 20C17.6665 17.243 15.4235 15 12.6665 15C9.9095 15 7.6665 17.243 7.6665 20C7.6665 20.552 7.2195 21 6.6665 21C6.1135 21 5.6665 20.552 5.6665 20Z" fill="#222222"/>
<mask id="mask0_641_53043" style="mask-type:alpha" maskUnits="userSpaceOnUse" x="5" y="3" width="15" height="18">
<path fill-rule="evenodd" clip-rule="evenodd" d="M14.6665 7C14.6665 5.897 13.7695 5 12.6665 5C11.5635 5 10.6665 5.897 10.6665 7C10.6665 8.103 11.5635 9 12.6665 9C13.7695 9 14.6665 8.103 14.6665 7ZM16.6665 7C16.6665 9.206 14.8725 11 12.6665 11C10.4605 11 8.6665 9.206 8.6665 7C8.6665 4.794 10.4605 3 12.6665 3C14.8725 3 16.6665 4.794 16.6665 7ZM5.6665 20C5.6665 16.14 8.8075 13 12.6665 13C16.5255 13 19.6665 16.14 19.6665 20C19.6665 20.552 19.2195 21 18.6665 21C18.1135 21 17.6665 20.552 17.6665 20C17.6665 17.243 15.4235 15 12.6665 15C9.9095 15 7.6665 17.243 7.6665 20C7.6665 20.552 7.2195 21 6.6665 21C6.1135 21 5.6665 20.552 5.6665 20Z" fill="white"/>
</mask>
<g mask="url(#mask0_641_53043)">
<rect x="0.666504" width="24" height="24" fill="#222222"/>
</g>
</svg>
