<svg width="30" height="31" viewBox="0 0 30 31" fill="none" xmlns="http://www.w3.org/2000/svg">
<path fill-rule="evenodd" clip-rule="evenodd" d="M20.4773 17.6533H10.9548L8.90851 10.1533H24.2273L20.4773 17.6533ZM26.3535 8.83832C25.8948 8.09582 25.0998 7.65332 24.2273 7.65332H8.22726L7.45601 4.82457C7.30726 4.28082 6.81351 3.90332 6.24976 3.90332H3.74976C3.05851 3.90332 2.49976 4.46332 2.49976 5.15332C2.49976 5.84332 3.05851 6.40332 3.74976 6.40332H5.29476L8.79351 19.2321C8.94226 19.7758 9.43601 20.1533 9.99976 20.1533H21.2498C21.7235 20.1533 22.156 19.8858 22.3685 19.4621L26.4635 11.2708C26.8548 10.4896 26.8123 9.58082 26.3535 8.83832ZM9.37501 22.6533C8.34001 22.6533 7.50001 23.4921 7.50001 24.5283C7.50001 25.5646 8.34001 26.4033 9.37501 26.4033C10.41 26.4033 11.25 25.5646 11.25 24.5283C11.25 23.4921 10.41 22.6533 9.37501 22.6533ZM20 24.5283C20 23.4921 20.84 22.6533 21.875 22.6533C22.91 22.6533 23.75 23.4921 23.75 24.5283C23.75 25.5646 22.91 26.4033 21.875 26.4033C20.84 26.4033 20 25.5646 20 24.5283Z" fill="#222222"/>
<mask id="mask0_641_52988" style="mask-type:alpha" maskUnits="userSpaceOnUse" x="2" y="3" width="25" height="24">
<path fill-rule="evenodd" clip-rule="evenodd" d="M20.4773 17.6533H10.9548L8.90851 10.1533H24.2273L20.4773 17.6533ZM26.3535 8.83832C25.8948 8.09582 25.0998 7.65332 24.2273 7.65332H8.22726L7.45601 4.82457C7.30726 4.28082 6.81351 3.90332 6.24976 3.90332H3.74976C3.05851 3.90332 2.49976 4.46332 2.49976 5.15332C2.49976 5.84332 3.05851 6.40332 3.74976 6.40332H5.29476L8.79351 19.2321C8.94226 19.7758 9.43601 20.1533 9.99976 20.1533H21.2498C21.7235 20.1533 22.156 19.8858 22.3685 19.4621L26.4635 11.2708C26.8548 10.4896 26.8123 9.58082 26.3535 8.83832ZM9.37501 22.6533C8.34001 22.6533 7.50001 23.4921 7.50001 24.5283C7.50001 25.5646 8.34001 26.4033 9.37501 26.4033C10.41 26.4033 11.25 25.5646 11.25 24.5283C11.25 23.4921 10.41 22.6533 9.37501 22.6533ZM20 24.5283C20 23.4921 20.84 22.6533 21.875 22.6533C22.91 22.6533 23.75 23.4921 23.75 24.5283C23.75 25.5646 22.91 26.4033 21.875 26.4033C20.84 26.4033 20 25.5646 20 24.5283Z" fill="white"/>
</mask>
<g mask="url(#mask0_641_52988)">
<rect y="0.15332" width="30" height="30" fill="#222222"/>
</g>
</svg>
